<svg id="visual" viewBox="0 0 900 300" width="900" height="300" xmlns="http://www.w3.org/2000/svg" xmlns:xlink="http://www.w3.org/1999/xlink" version="1.1"><rect x="0" y="0" width="900" height="300" fill="#101069"></rect><path d="M0 112L129 125L257 71L386 109L514 139L643 115L771 142L900 140L900 301L771 301L643 301L514 301L386 301L257 301L129 301L0 301Z" fill="#1eae1e"></path><path d="M0 103L129 148L257 131L386 95L514 121L643 130L771 95L900 136L900 301L771 301L643 301L514 301L386 301L257 301L129 301L0 301Z" fill="#46b33b"></path><path d="M0 136L129 117L257 168L386 147L514 134L643 141L771 163L900 130L900 301L771 301L643 301L514 301L386 301L257 301L129 301L0 301Z" fill="#5fb751"></path><path d="M0 146L129 160L257 162L386 183L514 172L643 167L771 146L900 163L900 301L771 301L643 301L514 301L386 301L257 301L129 301L0 301Z" fill="#75bb67"></path><path d="M0 204L129 184L257 170L386 188L514 201L643 185L771 198L900 179L900 301L771 301L643 301L514 301L386 301L257 301L129 301L0 301Z" fill="#88bf7b"></path><path d="M0 190L129 211L257 227L386 208L514 216L643 189L771 196L900 230L900 301L771 301L643 301L514 301L386 301L257 301L129 301L0 301Z" fill="#9ac38f"></path><path d="M0 224L129 220L257 220L386 212L514 222L643 228L771 231L900 218L900 301L771 301L643 301L514 301L386 301L257 301L129 301L0 301Z" fill="#abc6a3"></path><path d="M0 255L129 245L257 262L386 267L514 263L643 267L771 242L900 261L900 301L771 301L643 301L514 301L386 301L257 301L129 301L0 301Z" fill="#bcc9b8"></path><path d="M0 278L129 277L257 272L386 272L514 285L643 272L771 259L900 275L900 301L771 301L643 301L514 301L386 301L257 301L129 301L0 301Z" fill="#cccccc"></path></svg>