<svg id="visual" viewBox="0 0 900 300" width="900" height="300" xmlns="http://www.w3.org/2000/svg" xmlns:xlink="http://www.w3.org/1999/xlink" version="1.1"><rect x="0" y="0" width="900" height="300" fill="#101069"></rect><path d="M0 193L129 183L257 221L386 220L514 194L643 209L771 182L900 218L900 301L771 301L643 301L514 301L386 301L257 301L129 301L0 301Z" fill="#f5730a"></path><path d="M0 201L129 222L257 221L386 222L514 211L643 233L771 232L900 207L900 301L771 301L643 301L514 301L386 301L257 301L129 301L0 301Z" fill="#f28b47"></path><path d="M0 244L129 254L257 222L386 220L514 226L643 230L771 245L900 240L900 301L771 301L643 301L514 301L386 301L257 301L129 301L0 301Z" fill="#eba174"></path><path d="M0 242L129 249L257 254L386 267L514 262L643 253L771 263L900 268L900 301L771 301L643 301L514 301L386 301L257 301L129 301L0 301Z" fill="#dfb7a0"></path><path d="M0 267L129 272L257 278L386 281L514 266L643 273L771 283L900 279L900 301L771 301L643 301L514 301L386 301L257 301L129 301L0 301Z" fill="#cccccc"></path></svg>