<svg id="visual" viewBox="0 0 900 600" width="900" height="600" xmlns="http://www.w3.org/2000/svg" xmlns:xlink="http://www.w3.org/1999/xlink" version="1.1"><rect x="0" y="0" width="900" height="600" fill="#261cc4"></rect><path d="M0 121L129 121L129 111L257 111L257 135L386 135L386 102L514 102L514 116L643 116L643 129L771 129L771 95L900 95L900 110L900 0L900 0L771 0L771 0L643 0L643 0L514 0L514 0L386 0L386 0L257 0L257 0L129 0L129 0L0 0Z" fill="#161610"></path><path d="M0 107L129 107L129 86L257 86L257 103L386 103L386 104L514 104L514 99L643 99L643 104L771 104L771 89L900 89L900 87L900 0L900 0L771 0L771 0L643 0L643 0L514 0L514 0L386 0L386 0L257 0L257 0L129 0L129 0L0 0Z" fill="#7b6a5e"></path><path d="M0 43L129 43L129 57L257 57L257 64L386 64L386 59L514 59L514 58L643 58L643 43L771 43L771 24L900 24L900 25L900 0L900 0L771 0L771 0L643 0L643 0L514 0L514 0L386 0L386 0L257 0L257 0L129 0L129 0L0 0Z" fill="#f7caca"></path></svg>