<svg id="visual" viewBox="0 0 900 600" width="900" height="600" xmlns="http://www.w3.org/2000/svg" xmlns:xlink="http://www.w3.org/1999/xlink" version="1.1"><rect x="0" y="0" width="900" height="600" fill="#CCCCCC"></rect><path d="M0 58L90 58L90 66L180 66L180 81L270 81L270 79L360 79L360 74L450 74L450 62L540 62L540 88L630 88L630 73L720 73L720 81L810 81L810 63L900 63L900 81L900 0L900 0L810 0L810 0L720 0L720 0L630 0L630 0L540 0L540 0L450 0L450 0L360 0L360 0L270 0L270 0L180 0L180 0L90 0L90 0L0 0Z" fill="#1eae1e"></path><path d="M0 57L90 57L90 45L180 45L180 43L270 43L270 42L360 42L360 57L450 57L450 52L540 52L540 61L630 61L630 42L720 42L720 66L810 66L810 49L900 49L900 56L900 0L900 0L810 0L810 0L720 0L720 0L630 0L630 0L540 0L540 0L450 0L450 0L360 0L360 0L270 0L270 0L180 0L180 0L90 0L90 0L0 0Z" fill="#005b00"></path><path d="M0 32L90 32L90 36L180 36L180 23L270 23L270 31L360 31L360 31L450 31L450 35L540 35L540 24L630 24L630 25L720 25L720 24L810 24L810 26L900 26L900 40L900 0L900 0L810 0L810 0L720 0L720 0L630 0L630 0L540 0L540 0L450 0L450 0L360 0L360 0L270 0L270 0L180 0L180 0L90 0L90 0L0 0Z" fill="#000000"></path></svg>