<svg id="visual" viewBox="0 0 900 40" width="900" height="40" xmlns="http://www.w3.org/2000/svg" xmlns:xlink="http://www.w3.org/1999/xlink" version="1.1"><rect x="0" y="0" width="900" height="40" fill="#CCCCCC"></rect><path d="M0 33L75 33L75 21L150 21L150 29L225 29L225 18L300 18L300 21L375 21L375 32L450 32L450 26L525 26L525 24L600 24L600 27L675 27L675 22L750 22L750 17L825 17L825 19L900 19L900 22L900 0L900 0L825 0L825 0L750 0L750 0L675 0L675 0L600 0L600 0L525 0L525 0L450 0L450 0L375 0L375 0L300 0L300 0L225 0L225 0L150 0L150 0L75 0L75 0L0 0Z" fill="#1eae1e"></path><path d="M0 13L75 13L75 18L150 18L150 20L225 20L225 26L300 26L300 24L375 24L375 25L450 25L450 26L525 26L525 24L600 24L600 16L675 16L675 19L750 19L750 12L825 12L825 26L900 26L900 25L900 0L900 0L825 0L825 0L750 0L750 0L675 0L675 0L600 0L600 0L525 0L525 0L450 0L450 0L375 0L375 0L300 0L300 0L225 0L225 0L150 0L150 0L75 0L75 0L0 0Z" fill="#097607"></path><path d="M0 17L75 17L75 7L150 7L150 17L225 17L225 18L300 18L300 11L375 11L375 7L450 7L450 15L525 15L525 16L600 16L600 15L675 15L675 13L750 13L750 14L825 14L825 17L900 17L900 13L900 0L900 0L825 0L825 0L750 0L750 0L675 0L675 0L600 0L600 0L525 0L525 0L450 0L450 0L375 0L375 0L300 0L300 0L225 0L225 0L150 0L150 0L75 0L75 0L0 0Z" fill="#004000"></path><path d="M0 8L75 8L75 3L150 3L150 10L225 10L225 12L300 12L300 10L375 10L375 4L450 4L450 10L525 10L525 8L600 8L600 6L675 6L675 11L750 11L750 9L825 9L825 7L900 7L900 8L900 0L900 0L825 0L825 0L750 0L750 0L675 0L675 0L600 0L600 0L525 0L525 0L450 0L450 0L375 0L375 0L300 0L300 0L225 0L225 0L150 0L150 0L75 0L75 0L0 0Z" fill="#000000"></path></svg>